Patient4_TMGait_0pt2_01_left_20_EMG.mot
version=1
nRows=13
nColumns=33
inDegrees=no
endheader
time	1LAddLong	2LGlutMax	3LGlutMed	4LIliopsoas	5LSemiMemb	6LBicFemLong	7LRecFem	8LVastMed	9LVastLat	10LGasMed	11LTibAnt	12lTibPost	13LPeroneusLong	14LSol	15LExtDigLong	16LFlexDigLong	17RAddLong	18RGlutMax	19RGlutMed	20RIliopsoas	21RSemiMemb	22RBicFemLong	23RRecFem	24RVastMed	25RVastLat	26RGasMed	27RTibAnt	28RTibPost	29RPeroneusLong	30RSol	31RExtDigLong	32RFlexDigLong
48.388	0.010986	-0.019073	0.005341	0.021057	-0.008545	0.034027	0.015869	0.005493	-0.018311	-0.06012	-0.058746	0.006256	0.061646	0.088806	-0.051727	-0.007324	-0.033722	0.13458	-0.074615	-0.052185	-0.014343	0.06958	-0.097656	-0.029449	0.5191	-0.03891	-0.072937	0.093536	0.64728	-0.29556	-0.007935	-0.00473
48.389	0.017395	0.008392	-0.009003	0.011597	-0.006561	0.028839	-0.001068	-0.001526	-0.012512	-0.043488	-0.12924	-0.002899	0.09201	-0.034637	-0.62668	-0.001526	-0.037231	0.12161	0.37354	-0.12329	0.031738	0.26794	-0.084839	-0.30914	0.92285	0.018463	-0.015259	-0.060577	0.15945	-0.63553	-0.001831	-0.0177
48.39	0.014343	-0.023041	-0.011902	-0.007172	-0.010071	0.017853	0.001984	0.004883	-0.016937	-0.019989	-0.16251	0.001678	0.040588	-0.15152	-0.63995	0.002136	-0.034027	0.042877	1.1163	-0.13336	0.224	0.21851	0.00473	-0.40771	1.1316	0.16342	-0.011597	-0.22675	-0.1268	0.28534	-0.007019	-0.00885
48.391	0.012054	0.010529	-0.014648	0.002136	-0.005341	0.020447	0.009308	0.008545	-0.012054	-0.00824	-0.043793	0.010071	0.002441	-0.16785	-0.3212	0.010986	0.021515	0.086212	0.71198	-0.10284	0.13046	-0.17197	0.067291	-0.19653	0.81955	0.076141	0.012512	0.28183	-1.1304	0.33005	-0.004578	-0.004883
48.392	0.016022	-0.007477	-0.058441	0.003662	-0.005341	0.005341	-0.005341	0.007629	-0.001373	-0.01358	0.028229	0.004272	-0.02121	-0.10712	0.020752	0.023651	0.038757	-0.018158	-0.57373	-0.12711	-0.067444	-0.32715	0.10681	-0.086212	0.49469	0.018005	0.037079	-0.040741	-0.42511	-0.98785	-0.001831	-0.009155
48.393	0.002289	0.014191	-0.057373	0.000458	-0.006256	0.026245	0.002441	0.00473	-0.004883	-0.01297	-0.011749	0.006104	-0.011902	-0.10193	0.063629	0.02655	0.010986	0.002594	-0.81528	-0.053406	-0.019226	-0.13977	0.11108	0.049286	-0.016479	-0.036774	0.037079	0.045471	0.71823	-1.3463	0.000305	-0.009308
48.394	0.056152	0.007172	-0.03479	-0.005188	-0.002747	-0.000458	-0.000458	0.003204	-0.00351	-0.006104	-0.033569	0.005188	-0.007629	-0.10956	0.0177	0.034027	0.000458	0.03006	-0.23209	0.002899	0.081024	0.23666	0.071259	0.37659	-0.44479	-0.1503	0.048676	0.23209	1.956	-0.13351	-0.001678	-0.013123
48.395	0.023499	0.008087	0.030365	0.001984	-0.001526	-0.018158	0.011444	0.007629	-0.005188	-0.012512	-0.027771	0.000916	0.010376	-0.084076	0.011902	0.046082	0.011139	-0.043793	-0.14252	-0.006256	-0.000763	0.38147	-0.028534	0.37842	-0.68665	-0.1651	0.10086	0.21744	1.2401	0.57327	0	-0.019989
48.396	-0.025482	-0.001678	0.052032	-0.00946	-0.000305	-0.010071	0.0177	0.003357	-0.003815	-0.007324	-0.019684	0.005646	-0.015717	-0.047607	0.13306	0.045166	0.002136	-0.18768	0.29495	-0.016327	-0.10727	0.2623	0.044098	0.49423	-0.78613	-0.11688	0.021362	0.096893	0.47562	0.40726	-0.002899	-0.007629
48.397	0.007019	-0.040131	0.005646	0.006256	-0.006561	-0.023346	0.001984	-0.001678	-0.014191	-0.018158	0.002136	0.003052	-0.032196	-0.028992	0.22888	0.048523	0.02594	-0.24719	-0.3331	0.018921	-0.099792	0.18219	0.27298	0.058746	-0.71167	-0.045013	-0.19501	-0.34393	1.2331	0.79575	-0.002441	-0.001526
48.398	0.000458	-0.040741	-0.01709	0.01236	-0.001068	-0.020142	-0.000153	0.001526	-0.011749	-0.003967	0.021057	0.002899	-0.008392	-0.087433	0.20706	0.046692	0.014954	-0.048676	-0.41718	0.10269	0.1947	0.29404	0.24567	-0.22446	-0.45425	0.046844	-0.014648	0.1001	0.60043	0.61645	0.005951	-0.001526
48.399	0.006104	-0.020142	0.001526	0.010223	-0.004578	0.020294	0.00061	0.004883	-0.010223	-0.022278	0.035706	0.007172	0.031433	-0.076904	0.2565	0.050049	0.035553	-0.10696	0.1593	0.071564	0.18097	0.36941	0.3302	-0.44052	-0.006256	0.098877	0.033264	0.11002	0.39215	0.30136	-0.002899	0.003052
48.4	0.016632	-0.028534	0.018616	0.019226	-0.014343	0.012817	0.002289	0.004578	-0.00946	-0.00473	0.017242	0.002136	0.050659	-0.086517	0.19989	0.051422	0.074158	-0.092621	1.0252	-0.005493	-0.25146	0.044556	0.35324	-0.45792	0.36926	0.18692	0.12619	-0.019073	-1.024	0.21088	-0.00351	0.012512
